<?xml version="1.0" encoding="iso-8859-1"?>
<!-- Generator: Adobe Illustrator 23.1.1, SVG Export Plug-In . SVG Version: 6.00 Build 0)  -->
<svg version="1.1" id="_x31_-outline-expand" xmlns="http://www.w3.org/2000/svg" xmlns:xlink="http://www.w3.org/1999/xlink"
	 x="0px" y="0px" viewBox="0 0 64 64" style="enable-background:new 0 0 64 64;" xml:space="preserve">
<path style="fill:#EFBC2E;" d="M23,44v8.5c0,1.381,1.119,2.5,2.5,2.5c1.381,0,2.5-1.119,2.5-2.5V44H23z"/>
<path style="fill:#F2DAAE;" d="M32,3L32,3c-2.859,0-5.274,2.123-5.64,4.959l-3.122,24.194c-0.154,1.198-0.701,2.31-1.554,3.164
	L19.6,37.4c-1.025,1.024-1.6,2.414-1.6,3.863c0,2.718,1.999,5.023,4.689,5.407l1.279,0.183c0.681,0.097,1.34,0.322,1.937,0.665
	l3.385,1.933c1.679,0.96,3.741,0.96,5.42,0l3.385-1.933c0.597-0.343,1.256-0.568,1.937-0.665l1.279-0.183
	C44.001,46.286,46,43.981,46,41.263c0-1.449-0.575-2.839-1.6-3.863l-2.084-2.083c-0.853-0.854-1.4-1.966-1.554-3.164L37.64,7.959
	C37.274,5.123,34.859,3,32,3"/>
<path style="fill:#62C4C3;" d="M42,57c0,2.761-1.343,4-3,4c-1.657,0-3-1.239-3-4c0-2.761,3-6,3-6S42,54.239,42,57"/>
<path style="fill:#3A4249;" d="M45.107,36.692l-2.084-2.082c-0.693-0.694-1.144-1.612-1.269-2.585L38.632,7.831
	C38.203,4.507,35.353,2,32,2c-3.352,0-6.203,2.507-6.632,5.831l-3.122,24.194c-0.125,0.973-0.576,1.891-1.269,2.585l-2.084,2.083
	C17.672,37.913,17,39.536,17,41.263c0,3.004,2.119,5.589,5,6.266V52.5c0,1.93,1.57,3.5,3.5,3.5c1.93,0,3.5-1.57,3.5-3.5v-2.08
	c0.937,0.491,1.967,0.747,3,0.747c1.108,0,2.218-0.282,3.206-0.848l3.386-1.934c0.488-0.28,1.02-0.462,1.582-0.543l1.278-0.183
	C44.615,47.208,47,44.458,47,41.263C47,39.536,46.328,37.913,45.107,36.692 M25.5,54c-0.827,0-1.5-0.673-1.5-1.5v-4.616
	c0.496,0.091,0.972,0.251,1.409,0.502L27,49.294V52.5C27,53.327,26.327,54,25.5,54 M41.169,45.68l-1.278,0.183
	c-0.813,0.116-1.584,0.38-2.292,0.786l-3.385,1.934c-1.365,0.781-3.063,0.78-4.428,0l-3.384-1.933
	c-0.709-0.407-1.48-0.671-2.293-0.787l-1.278-0.183C20.647,45.368,19,43.469,19,41.263c0-1.193,0.464-2.313,1.307-3.156l2.084-2.083
	c1.005-1.006,1.658-2.335,1.84-3.743l3.122-24.194C27.652,5.757,29.65,4,32,4s4.348,1.757,4.648,4.087l3.122,24.194
	c0.181,1.408,0.835,2.737,1.839,3.743l2.084,2.083C44.536,38.95,45,40.07,45,41.263C45,43.469,43.354,45.368,41.169,45.68"/>
<path style="fill:#3A4249;" d="M38.267,50.32C38.133,50.464,35,53.883,35,57c0,3.69,2.154,5,4,5c1.846,0,4-1.31,4-5
	c0-3.117-3.133-6.536-3.267-6.68C39.354,49.912,38.646,49.912,38.267,50.32 M39,60c-1.74,0-2-1.879-2-3
	c0-1.459,1.123-3.276,2.001-4.434C39.879,53.722,41,55.535,41,57C41,58.121,40.74,60,39,60"/>
</svg>
